<?xml version="1.0" encoding="iso-8859-1"?>
<!-- Generator: Adobe Illustrator 19.0.0, SVG Export Plug-In . SVG Version: 6.00 Build 0)  -->
<svg version="1.1" id="Layer_1" xmlns="http://www.w3.org/2000/svg" xmlns:xlink="http://www.w3.org/1999/xlink" x="0px" y="0px"
	 viewBox="0 0 456.963 456.963" style="enable-background:new 0 0 456.963 456.963;" xml:space="preserve">
<g id="XMLID_72_">
	<g id="XMLID_2117_">
		<path style="fill:#5EAC24;" d="M392.082,40.346C341.522,13.844,285.29,0,228.206,0h-0.002c-56.735,0-112.633,13.676-162.96,39.868
			L30.656,57.869C19.2,63.831,12.57,76.208,13.955,89.048l26.121,242.229c1.609,14.924,10.175,28.211,23.105,35.837l141.156,83.259
			c14.897,8.787,33.391,8.787,48.287,0l141.16-83.262c12.927-7.625,21.492-20.908,23.104-35.829l26.12-241.813
			c1.384-12.809-5.208-25.161-16.619-31.143L392.082,40.346z"/>
	</g>
	<g id="XMLID_83_">
		<path style="fill:#47821C;" d="M426.388,58.328l-34.306-17.982C342.98,14.608,288.527,0.812,233.139,0.037V456.71
			c6.766-0.666,13.424-2.761,19.484-6.335l141.16-83.262c12.927-7.624,21.492-20.908,23.104-35.829l26.12-241.813
			C444.391,76.661,437.799,64.309,426.388,58.328z"/>
	</g>
	<g id="XMLID_1236_">
		<path style="fill:#47821C;" d="M344.886,94.62c-35.974-18.856-75.984-28.707-116.602-28.707c-40.367,0-80.14,9.73-115.948,28.366
			l-24.61,12.808c-8.151,4.242-12.868,13.048-11.883,22.185l18.585,172.35c1.145,10.619,7.24,20.073,16.439,25.499l100.434,59.24
			c10.599,6.252,23.758,6.252,34.357,0l100.438-59.242c9.198-5.425,15.292-14.876,16.439-25.493l18.585-172.054
			c0.984-9.114-3.706-17.903-11.825-22.158L344.886,94.62z"/>
	</g>
	<g id="XMLID_1046_">
		<path style="fill:#5EAC24;" d="M369.295,107.415L344.886,94.62C310.19,76.434,271.74,66.628,232.612,65.954v324.835
			c4.533-0.557,8.979-2.027,13.047-4.427l100.438-59.242c9.198-5.425,15.292-14.876,16.439-25.493l18.585-172.054
			C382.104,120.46,377.414,111.671,369.295,107.415z"/>
	</g>
</g>
<g>
</g>
<g>
</g>
<g>
</g>
<g>
</g>
<g>
</g>
<g>
</g>
<g>
</g>
<g>
</g>
<g>
</g>
<g>
</g>
<g>
</g>
<g>
</g>
<g>
</g>
<g>
</g>
<g>
</g>
</svg>
