<svg width="70" height="42" viewBox="0 0 70 42" fill="none" xmlns="http://www.w3.org/2000/svg">
<rect width="70" height="42" fill="white"/>
<rect y="21" width="70" height="21" fill="#9A9A9A"/>
<rect width="70" height="21" fill="#D9D9D9"/>
<path d="M31.3636 27.2784V26.7955C31.3731 25.1383 31.5199 23.8172 31.804 22.8324C32.0975 21.8475 32.5237 21.0521 33.0824 20.446C33.6411 19.84 34.3134 19.2907 35.0994 18.7983C35.6866 18.4195 36.2121 18.0265 36.6761 17.6193C37.1402 17.2121 37.5095 16.7623 37.7841 16.2699C38.0587 15.768 38.196 15.2093 38.196 14.5938C38.196 13.9403 38.0398 13.3674 37.7273 12.875C37.4148 12.3826 36.9934 12.0038 36.4631 11.7386C35.9422 11.4735 35.3646 11.3409 34.7301 11.3409C34.1146 11.3409 33.5322 11.4782 32.983 11.7528C32.4337 12.018 31.9839 12.4157 31.6335 12.946C31.2831 13.4669 31.0938 14.1155 31.0653 14.892H25.2699C25.3172 12.9981 25.7718 11.4356 26.6335 10.2045C27.4953 8.96402 28.6364 8.04072 30.0568 7.43466C31.4773 6.81913 33.0445 6.51136 34.7585 6.51136C36.643 6.51136 38.3097 6.82386 39.7585 7.44886C41.2074 8.06439 42.3438 8.95928 43.1676 10.1335C43.9915 11.3078 44.4034 12.7235 44.4034 14.3807C44.4034 15.4886 44.2188 16.4735 43.8494 17.3352C43.4896 18.1875 42.983 18.9451 42.3295 19.608C41.6761 20.2614 40.9044 20.8532 40.0142 21.3835C39.2661 21.8286 38.6506 22.2926 38.1676 22.7756C37.6941 23.2585 37.339 23.8172 37.1023 24.4517C36.875 25.0862 36.7566 25.8674 36.7472 26.7955V27.2784H31.3636ZM34.1761 36.3693C33.2292 36.3693 32.4195 36.0379 31.7472 35.375C31.0843 34.7027 30.7576 33.8977 30.767 32.9602C30.7576 32.0322 31.0843 31.2367 31.7472 30.5739C32.4195 29.911 33.2292 29.5795 34.1761 29.5795C35.0758 29.5795 35.8665 29.911 36.5483 30.5739C37.2301 31.2367 37.5758 32.0322 37.5852 32.9602C37.5758 33.5852 37.41 34.1581 37.0881 34.679C36.7756 35.1903 36.3636 35.6023 35.8523 35.9148C35.3409 36.2178 34.7822 36.3693 34.1761 36.3693Z" fill="white"/>
<path d="M31.3636 27.2784H31.1636V27.4784H31.3636V27.2784ZM31.3636 26.7955L31.1636 26.7943V26.7955H31.3636ZM31.804 22.8324L31.6123 22.7753L31.6118 22.777L31.804 22.8324ZM35.0994 18.7983L35.2056 18.9678L35.2079 18.9664L35.0994 18.7983ZM36.6761 17.6193L36.5442 17.469L36.5442 17.469L36.6761 17.6193ZM37.7841 16.2699L37.9588 16.3673L37.9595 16.3659L37.7841 16.2699ZM37.7273 12.875L37.5584 12.9822L37.5584 12.9822L37.7273 12.875ZM36.4631 11.7386L36.3723 11.9169L36.3736 11.9175L36.4631 11.7386ZM32.983 11.7528L33.0699 11.933L33.0724 11.9317L32.983 11.7528ZM31.6335 12.946L31.7995 13.0577L31.8004 13.0563L31.6335 12.946ZM31.0653 14.892V15.092H31.2582L31.2652 14.8994L31.0653 14.892ZM25.2699 14.892L25.0699 14.887L25.0648 15.092H25.2699V14.892ZM26.6335 10.2045L26.7974 10.3192L26.7978 10.3186L26.6335 10.2045ZM30.0568 7.43466L30.1353 7.61862L30.1363 7.61817L30.0568 7.43466ZM39.7585 7.44886L39.6793 7.63251L39.6803 7.63294L39.7585 7.44886ZM43.1676 10.1335L43.0039 10.2484L43.0039 10.2484L43.1676 10.1335ZM43.8494 17.3352L43.6656 17.2564L43.6652 17.2574L43.8494 17.3352ZM42.3295 19.608L42.471 19.7494L42.472 19.7484L42.3295 19.608ZM40.0142 21.3835L40.1165 21.5554L40.1166 21.5553L40.0142 21.3835ZM38.1676 22.7756L38.0262 22.6341L38.0248 22.6356L38.1676 22.7756ZM37.1023 24.4517L36.9149 24.3818L36.914 24.3843L37.1023 24.4517ZM36.7472 26.7955L36.5472 26.7934V26.7955H36.7472ZM36.7472 27.2784V27.4784H36.9472V27.2784H36.7472ZM31.7472 35.375L31.6047 35.5154L31.6067 35.5174L31.7472 35.375ZM30.767 32.9602L30.9671 32.9622L30.967 32.9582L30.767 32.9602ZM31.7472 30.5739L31.6067 30.4314L31.6057 30.4324L31.7472 30.5739ZM36.5483 30.5739L36.4089 30.7173L36.4089 30.7173L36.5483 30.5739ZM37.5852 32.9602L37.7853 32.9633L37.7852 32.9582L37.5852 32.9602ZM37.0881 34.679L36.9179 34.5738L36.9174 34.5747L37.0881 34.679ZM35.8523 35.9148L35.9542 36.0868L35.9566 36.0854L35.8523 35.9148ZM31.5636 27.2784V26.7955H31.1636V27.2784H31.5636ZM31.5636 26.7966C31.5731 25.148 31.7193 23.8476 31.9961 22.8878L31.6118 22.777C31.3205 23.7869 31.1732 25.1286 31.1636 26.7943L31.5636 26.7966ZM31.9956 22.8895C32.2826 21.9268 32.6958 21.1604 33.2294 20.5816L32.9353 20.3105C32.3515 20.9438 31.9125 21.7682 31.6123 22.7753L31.9956 22.8895ZM33.2294 20.5816C33.7747 19.9901 34.4328 19.4519 35.2056 18.9678L34.9932 18.6288C34.194 19.1295 33.5075 19.6898 32.9353 20.3105L33.2294 20.5816ZM35.2079 18.9664C35.8022 18.5829 36.3358 18.1841 36.8081 17.7696L36.5442 17.469C36.0885 17.8689 35.5709 18.2561 34.991 18.6302L35.2079 18.9664ZM36.8081 17.7696C37.2876 17.3488 37.672 16.8815 37.9588 16.3673L37.6094 16.1725C37.3469 16.6431 36.9927 17.0754 36.5442 17.469L36.8081 17.7696ZM37.9595 16.3659C38.2515 15.8323 38.396 15.2402 38.396 14.5938H37.996C37.996 15.1783 37.8659 15.7036 37.6086 16.1739L37.9595 16.3659ZM38.396 14.5938C38.396 13.9071 38.2314 13.2961 37.8961 12.7678L37.5584 12.9822C37.8482 13.4388 37.996 13.9736 37.996 14.5938H38.396ZM37.8961 12.7678C37.5638 12.2442 37.1147 11.8409 36.5525 11.5597L36.3736 11.9175C36.872 12.1667 37.2657 12.5209 37.5584 12.9822L37.8961 12.7678ZM36.5538 11.5604C36.0025 11.2797 35.3934 11.1409 34.7301 11.1409V11.5409C35.3358 11.5409 35.882 11.6672 36.3723 11.9169L36.5538 11.5604ZM34.7301 11.1409C34.0836 11.1409 33.4706 11.2854 32.8935 11.574L33.0724 11.9317C33.5938 11.671 34.1456 11.5409 34.7301 11.5409V11.1409ZM32.896 11.5727C32.3129 11.8542 31.836 12.2767 31.4667 12.8358L31.8004 13.0563C32.1318 12.5547 32.5545 12.1818 33.0699 11.933L32.896 11.5727ZM31.4676 12.8344C31.0919 13.3928 30.8949 14.0798 30.8655 14.8847L31.2652 14.8994C31.2926 14.1513 31.4743 13.541 31.7995 13.0577L31.4676 12.8344ZM31.0653 14.692H25.2699V15.092H31.0653V14.692ZM25.4698 14.897C25.5164 13.0322 25.9634 11.5106 26.7974 10.3192L26.4697 10.0899C25.5801 11.3606 25.118 12.964 25.0699 14.887L25.4698 14.897ZM26.7978 10.3186C27.6376 9.10973 28.7486 8.21027 30.1353 7.61861L29.9783 7.2507C28.5241 7.87117 27.353 8.8183 26.4693 10.0904L26.7978 10.3186ZM30.1363 7.61817C31.5291 7.01463 33.0689 6.71136 34.7585 6.71136V6.31136C33.0201 6.31136 31.4254 6.62363 29.9773 7.25115L30.1363 7.61817ZM34.7585 6.71136C36.6209 6.71136 38.2598 7.02018 39.6793 7.6325L39.8377 7.26522C38.3595 6.62754 36.665 6.31136 34.7585 6.31136V6.71136ZM39.6803 7.63294C41.0982 8.23532 42.2036 9.10771 43.0039 10.2484L43.3313 10.0187C42.4839 8.81085 41.3165 7.89346 39.8367 7.26479L39.6803 7.63294ZM43.0039 10.2484C43.8006 11.384 44.2034 12.758 44.2034 14.3807H44.6034C44.6034 12.689 44.1823 11.2316 43.3313 10.0187L43.0039 10.2484ZM44.2034 14.3807C44.2034 15.4664 44.0225 16.4237 43.6656 17.2564L44.0333 17.414C44.415 16.5233 44.6034 15.5109 44.6034 14.3807H44.2034ZM43.6652 17.2574C43.3152 18.0862 42.8229 18.8226 42.1871 19.4676L42.472 19.7484C43.1431 19.0676 43.6639 18.2888 44.0337 17.413L43.6652 17.2574ZM42.1881 19.4665C41.5477 20.1069 40.7895 20.6889 39.9118 21.2117L40.1166 21.5553C41.0193 21.0176 41.8045 20.4158 42.471 19.7494L42.1881 19.4665ZM39.9119 21.2116C39.1533 21.663 38.5236 22.1368 38.0262 22.6341L38.309 22.917C38.7776 22.4485 39.3789 21.9942 40.1165 21.5554L39.9119 21.2116ZM38.0248 22.6356C37.5317 23.1385 37.1614 23.7211 36.9149 24.3818L37.2897 24.5216C37.5166 23.9133 37.8566 23.3785 38.3104 22.9156L38.0248 22.6356ZM36.914 24.3843C36.677 25.046 36.5568 25.8509 36.5472 26.7934L36.9471 26.7975C36.9565 25.884 37.073 25.1264 37.2906 24.5191L36.914 24.3843ZM36.5472 26.7955V27.2784H36.9472V26.7955H36.5472ZM36.7472 27.0784H31.3636V27.4784H36.7472V27.0784ZM34.1761 36.1693C33.2815 36.1693 32.5224 35.8584 31.8876 35.2326L31.6067 35.5174C32.3166 36.2173 33.1768 36.5693 34.1761 36.5693V36.1693ZM31.8896 35.2346C31.2638 34.5999 30.9581 33.8461 30.967 32.9622L30.5671 32.9582C30.557 33.9494 30.9048 34.8054 31.6047 35.5154L31.8896 35.2346ZM30.967 32.9582C30.9581 32.0845 31.2633 31.3406 31.8886 30.7153L31.6057 30.4324C30.9053 31.1329 30.557 31.9799 30.5671 32.9623L30.967 32.9582ZM31.8876 30.7163C32.5224 30.0904 33.2815 29.7795 34.1761 29.7795V29.3795C33.1768 29.3795 32.3166 29.7315 31.6067 30.4314L31.8876 30.7163ZM34.1761 29.7795C35.0205 29.7795 35.762 30.0884 36.4089 30.7173L36.6877 30.4305C35.9709 29.7336 35.131 29.3795 34.1761 29.3795V29.7795ZM36.4089 30.7173C37.0535 31.344 37.3763 32.089 37.3852 32.9623L37.7852 32.9582C37.7752 31.9754 37.4067 31.1295 36.6877 30.4305L36.4089 30.7173ZM37.3853 32.9572C37.3763 33.5469 37.2205 34.0844 36.9179 34.5738L37.2582 34.7841C37.5996 34.2319 37.7752 33.6236 37.7852 32.9633L37.3853 32.9572ZM36.9174 34.5747C36.6215 35.059 36.2323 35.4482 35.748 35.7441L35.9566 36.0854C36.495 35.7564 36.9297 35.3217 37.2587 34.7833L36.9174 34.5747ZM35.7503 35.7427C35.2704 36.0271 34.7471 36.1693 34.1761 36.1693V36.5693C34.8173 36.5693 35.4114 36.4085 35.9542 36.0868L35.7503 35.7427Z" fill="black"/>
</svg>
